<svg xmlns="http://www.w3.org/2000/svg" width="80.696" height="80.565" viewBox="0 0 80.696 80.565">
  <g id="apartment" transform="translate(0 0)">
    <g id="Group_109" data-name="Group 109">
      <path id="Path_10" data-name="Path 10" d="M75.608,1.3H42.072a6.18,6.18,0,0,0-6.157,6.288v7.6H7.488A6.289,6.289,0,0,0,1.2,21.474v54.1a6.289,6.289,0,0,0,6.288,6.288h68.12A6.289,6.289,0,0,0,81.9,75.577V7.457A6.263,6.263,0,0,0,75.608,1.3ZM35.784,77.28H7.488a1.734,1.734,0,0,1-1.7-1.7V21.212a1.734,1.734,0,0,1,1.7-1.7h28.3Zm41.527-1.7a1.734,1.734,0,0,1-1.7,1.7H40.369V7.457a1.715,1.715,0,0,1,1.572-1.7H75.608a1.734,1.734,0,0,1,1.7,1.7Z" transform="translate(-1.2 -1.3)" fill="#d7dbe4"/>
      <path id="Path_11" data-name="Path 11" d="M9.355,32.043h5.633a.619.619,0,0,0,.655-.655V25.755a.619.619,0,0,0-.655-.655H9.355a.619.619,0,0,0-.655.655v5.633A.619.619,0,0,0,9.355,32.043Z" transform="translate(1.125 6.079)" fill="#d7dbe4"/>
      <path id="Path_12" data-name="Path 12" d="M19.455,32.043h5.633a.619.619,0,0,0,.655-.655V25.755a.619.619,0,0,0-.655-.655H19.455a.619.619,0,0,0-.655.655v5.633A.619.619,0,0,0,19.455,32.043Z" transform="translate(4.257 6.079)" fill="#d7dbe4"/>
      <path id="Path_13" data-name="Path 13" d="M9.355,46.543h5.633a.619.619,0,0,0,.655-.655V40.255a.619.619,0,0,0-.655-.655H9.355a.619.619,0,0,0-.655.655v5.633A.7.7,0,0,0,9.355,46.543Z" transform="translate(1.125 10.574)" fill="#d7dbe4"/>
      <path id="Path_14" data-name="Path 14" d="M19.455,46.543h5.633a.619.619,0,0,0,.655-.655V40.255a.619.619,0,0,0-.655-.655H19.455a.619.619,0,0,0-.655.655v5.633A.7.7,0,0,0,19.455,46.543Z" transform="translate(4.257 10.574)" fill="#d7dbe4"/>
      <path id="Path_15" data-name="Path 15" d="M43.488,12.1H37.855a.619.619,0,0,0-.655.655v5.633a.619.619,0,0,0,.655.655h5.633a.619.619,0,0,0,.655-.655V12.755A.7.7,0,0,0,43.488,12.1Z" transform="translate(9.96 2.048)" fill="#d7dbe4"/>
      <path id="Path_16" data-name="Path 16" d="M54.088,12.1H48.455a.619.619,0,0,0-.655.655v5.633a.619.619,0,0,0,.655.655h5.633a.619.619,0,0,0,.655-.655V12.755A.7.7,0,0,0,54.088,12.1Z" transform="translate(13.247 2.048)" fill="#d7dbe4"/>
      <path id="Path_17" data-name="Path 17" d="M43.488,26.4H37.855a.619.619,0,0,0-.655.655v5.633a.619.619,0,0,0,.655.655h5.633a.619.619,0,0,0,.655-.655V27.055A.619.619,0,0,0,43.488,26.4Z" transform="translate(9.96 6.481)" fill="#d7dbe4"/>
      <path id="Path_18" data-name="Path 18" d="M54.088,26.4H48.455a.619.619,0,0,0-.655.655v5.633a.619.619,0,0,0,.655.655h5.633a.619.619,0,0,0,.655-.655V27.055A.619.619,0,0,0,54.088,26.4Z" transform="translate(13.247 6.481)" fill="#d7dbe4"/>
      <path id="Path_19" data-name="Path 19" d="M43.488,40.7H37.855a.619.619,0,0,0-.655.655v5.633a.619.619,0,0,0,.655.655h5.633a.619.619,0,0,0,.655-.655V41.355A.619.619,0,0,0,43.488,40.7Z" transform="translate(9.96 10.915)" fill="#d7dbe4"/>
      <path id="Path_20" data-name="Path 20" d="M54.088,40.7H48.455a.619.619,0,0,0-.655.655v5.633a.619.619,0,0,0,.655.655h5.633a.619.619,0,0,0,.655-.655V41.355A.619.619,0,0,0,54.088,40.7Z" transform="translate(13.247 10.915)" fill="#d7dbe4"/>
    </g>
  </g>
</svg>
