<svg xmlns="http://www.w3.org/2000/svg" width="29.983" height="27.257" viewBox="0 0 29.983 27.257">
  <path id="Path_desktop-mac-dashboard" data-name="Path / desktop-mac-dashboard" d="M28.257,18.354V4.726H3.726V18.354H28.257M28.257,2a2.726,2.726,0,0,1,2.726,2.726V21.08a2.726,2.726,0,0,1-2.726,2.726h-9.54l2.726,4.089v1.363H10.54V27.894l2.726-4.089H3.726A2.725,2.725,0,0,1,1,21.08V4.726A2.716,2.716,0,0,1,3.726,2H28.257M5.089,6.089H20.08V12.9H5.089V6.089m16.354,0h5.451V8.814H21.443V6.089m5.451,4.089v6.814H21.443V10.177h5.451M5.089,14.266H11.9v2.726H5.089V14.266m8.177,0H20.08v2.726H13.266Z" transform="translate(-1 -2)" fill="#fff"/>
</svg>
