<svg xmlns="http://www.w3.org/2000/svg" width="76.358" height="63.632" viewBox="0 0 76.358 63.632">
  <path id="Path_badge-account-horizontal-outline" data-name="Path / badge-account-horizontal-outline" d="M25.453,24.271a6.363,6.363,0,1,1-6.363,6.363,6.363,6.363,0,0,1,6.363-6.363M38.179,49.724H12.726V46.542c0-4.232,8.495-6.363,12.726-6.363s12.726,2.132,12.726,6.363v3.182M63.632,23.693H44.542V28.32H63.632V23.693m0,11.859H44.542v4.628H63.632V35.551m0,11.859H44.542v4.628H63.632V47.41M69.995,8.363H44.542v4.628H71.73V61H4.628V12.991H31.816V8.363H6.363A6.363,6.363,0,0,0,0,14.726V59.268a6.363,6.363,0,0,0,6.363,6.363H69.995a6.363,6.363,0,0,0,6.363-6.363V14.726a6.363,6.363,0,0,0-6.363-6.363M41.361,12.991H35V2h6.363Z" transform="translate(0 -2)" fill="#d4dfe5"/>
</svg>
