<svg id="Component_15_1" data-name="Component 15 – 1" xmlns="http://www.w3.org/2000/svg" width="49" height="49" viewBox="0 0 49 49">
  <circle id="Ellipse_6" data-name="Ellipse 6" cx="24.5" cy="24.5" r="24.5" fill="#fff"/>
  <g id="Group_150" data-name="Group 150" transform="translate(-1996.791 -30.157)">
    <path id="Icon_material-lightbulb-outline" data-name="Icon material-lightbulb-outline" d="M12,23.609a1.127,1.127,0,0,0,1.124,1.124h4.5a1.127,1.127,0,0,0,1.124-1.124V22.485H12ZM15.369,3a7.865,7.865,0,0,0-4.5,14.321v2.54A1.127,1.127,0,0,0,12,20.986h6.745a1.127,1.127,0,0,0,1.124-1.124v-2.54A7.865,7.865,0,0,0,15.369,3Zm3.2,12.478-.955.674v2.585h-4.5V16.152l-.955-.674a5.621,5.621,0,1,1,6.407,0Z" transform="translate(2005.891 43.313)" fill="#283a6f"/>
    <line id="Line_34" data-name="Line 34" x2="2.41" transform="translate(2031.59 53.977)" fill="none" stroke="#283a6f" stroke-linecap="round" stroke-width="3"/>
    <line id="Line_35" data-name="Line 35" x2="2.354" transform="translate(2008.581 53.977)" fill="none" stroke="#283a6f" stroke-linecap="round" stroke-width="3"/>
    <line id="Line_37" data-name="Line 37" y2="2.419" transform="translate(2021.291 41.268)" fill="none" stroke="#283a6f" stroke-linecap="round" stroke-width="3"/>
    <line id="Line_38" data-name="Line 38" x2="1.494" y2="1.474" transform="translate(2030.213 60.899)" fill="none" stroke="#283a6f" stroke-linecap="round" stroke-width="3"/>
    <line id="Line_39" data-name="Line 39" x2="1.262" y2="1.353" transform="translate(2011.05 44.399)" fill="none" stroke="#283a6f" stroke-linecap="round" stroke-width="3"/>
    <line id="Line_40" data-name="Line 40" x1="1.262" y2="1.377" transform="translate(2011.05 61.587)" fill="none" stroke="#283a6f" stroke-linecap="round" stroke-width="3"/>
    <line id="Line_41" data-name="Line 41" x1="1.318" y2="1.353" transform="translate(2030.213 44.399)" fill="none" stroke="#283a6f" stroke-linecap="round" stroke-width="3"/>
  </g>
</svg>
