<svg xmlns="http://www.w3.org/2000/svg" width="27.257" height="27.257" viewBox="0 0 27.257 27.257">
  <path id="Path_search-web" data-name="Path / search-web" d="M23.649,21.171l6.608,6.608-2.478,2.478-6.608-6.608V22.344l-.446-.463a10.754,10.754,0,1,1,1.156-1.156l.463.446h1.305M13.738,5.478l-.909.05a23.716,23.716,0,0,0-1.454,4.08H16.1a23.716,23.716,0,0,0-1.454-4.08,5.486,5.486,0,0,0-.909-.05m7.153,4.13A8.165,8.165,0,0,0,16.463,5.94a21.726,21.726,0,0,1,1.289,3.667h3.139m-14.306,0H9.723A21.726,21.726,0,0,1,11.012,5.94,8.165,8.165,0,0,0,6.585,9.608m-1.107,4.13a8.345,8.345,0,0,0,.38,2.478H9.393l-.2-2.478.2-2.478H5.858a8.345,8.345,0,0,0-.38,2.478m16.14,2.478a8.27,8.27,0,0,0,0-4.956H18.082a15.586,15.586,0,0,1,0,4.956h3.535M11.045,11.26l-.2,2.478.2,2.478H16.43a15.586,15.586,0,0,0,0-4.956H11.045M13.738,22a5.093,5.093,0,0,0,.876-.05,22,22,0,0,0,1.487-4.08H11.375a22,22,0,0,0,1.487,4.08l.876.05m7.153-4.13H17.752a21.726,21.726,0,0,1-1.289,3.667,8.165,8.165,0,0,0,4.427-3.667m-14.306,0a8.165,8.165,0,0,0,4.427,3.667,21.726,21.726,0,0,1-1.289-3.667Z" transform="translate(-3 -3)" fill="#fff"/>
</svg>
